<svg width="512" height="512" viewBox="0 0 512 512" xmlns="http://www.w3.org/2000/svg">
  <rect x="12" y="12" width="488" height="488" rx="64" fill="#fdf5e3" stroke="#15120d" stroke-width="22"/>
  <rect x="31" y="31" width="450" height="450" rx="50" fill="none" stroke="#ffe07a" stroke-width="6"/>

  <path
    d="M247 37 L316 49 L372 86 L360 145 L309 141 L267 126 L241 160 L327 210 L274 276 L364 292 L278 314 L168 472 L210 316 L143 315 L196 220 L133 180 C120 135 160 78 247 37 Z"
    fill="#0e7f3f"
    stroke="#15120d"
    stroke-width="12"
    stroke-linejoin="round"
  />
  <path
    d="M258 74 C291 78 323 88 345 108 L341 126 L305 123 L268 109 Z"
    fill="#128a45"
    opacity="0.8"
  />
  <path
    d="M229 78 L183 145 L219 164 L173 252 L230 286 L184 420 L302 244 L247 224 L303 155 Z"
    fill="#ffd43b"
    stroke="#ffd43b"
    stroke-width="8"
    stroke-linejoin="round"
  />
  <path d="M289 69 C298 91 315 99 333 100 C317 108 294 103 283 82 Z" fill="#ffd43b" stroke="#15120d" stroke-width="7" stroke-linejoin="round"/>
  <path d="M302 129 L348 134" stroke="#15120d" stroke-width="7" stroke-linecap="round"/>
  <path d="M361 142 C372 153 386 158 400 158 M380 155 L397 146 M380 155 L398 168" stroke="#15120d" stroke-width="7" stroke-linecap="round" stroke-linejoin="round" fill="none"/>
</svg>
